<svg xmlns="http://www.w3.org/2000/svg" width="18" height="18"><path d="M3.54 2a12.312 12.312 0 00.45 2.59l-1.2 1.2A14.826 14.826 0 012.03 2h1.51m9.86 12.02a12.753 12.753 0 002.6.45v1.49a15.426 15.426 0 01-3.8-.75l1.2-1.19M4.5 0H1a1 1 0 00-1 1 17 17 0 0017 17 1 1 0 001-1v-3.49a1 1 0 00-1-1 11.407 11.407 0 01-3.57-.57.84.84 0 00-.31-.05 1.024 1.024 0 00-.71.29l-2.2 2.2a15.149 15.149 0 01-6.59-6.59l2.2-2.2a1 1 0 00.25-1.02A11.36 11.36 0 015.5 1a1 1 0 00-1-1z" fill="#c2c2c2" fill-rule="evenodd"/></svg>